# Blender v2.62 (sub 0) OBJ File: ''
# www.blender.org
o Cube
v 4.574369 -0.131266 -2.373408
v 4.574369 -0.131266 2.373408
v -4.574370 -0.131266 2.373408
v -4.574368 -0.131266 -2.373409
v 4.574372 0.131266 -2.373407
v 4.574367 0.131266 2.373410
v -4.574371 0.131266 2.373407
v -4.574369 0.131266 -2.373408
vn 0.000000 -1.000000 0.000000
vn 1.000000 0.000001 0.000001
vn -0.000000 -0.000002 1.000000
vn -1.000000 -0.000004 -0.000000
vn 0.000000 0.000004 -1.000000
s off
f 1//1 2//1 3//1
f 1//1 3//1 4//1
f 1//2 5//2 6//2
f 1//2 6//2 2//2
f 2//3 6//3 7//3
f 2//3 7//3 3//3
f 3//4 7//4 8//4
f 3//4 8//4 4//4
f 5//5 1//5 4//5
f 5//5 4//5 8//5
